<?xml version="1.0" standalone="no"?>
<!DOCTYPE svg PUBLIC "-//W3C//DTD SVG 20010904//EN"
 "http://www.w3.org/TR/2001/REC-SVG-20010904/DTD/svg10.dtd">
<svg version="1.0" xmlns="http://www.w3.org/2000/svg"
 width="128.000000pt" height="128.000000pt" viewBox="0 0 128.000000 128.000000"
 preserveAspectRatio="xMidYMid meet">

<g transform="translate(0.000000,128.000000) scale(0.100000,-0.100000)"
fill="#000000" stroke="none">
<path d="M70 1102 c-69 -34 -70 -42 -70 -460 0 -403 2 -423 54 -457 14 -9 43
-19 65 -22 l41 -6 2 376 3 376 233 -180 c128 -98 237 -179 242 -179 6 0 115
80 243 179 l232 179 3 -375 2 -376 41 6 c53 7 87 31 105 72 21 50 21 760 0
810 -17 41 -52 65 -103 72 -37 4 -47 -2 -278 -186 -132 -105 -242 -191 -245
-190 -3 0 -113 85 -245 189 -168 133 -247 190 -265 190 -14 0 -41 -8 -60 -18z"/>
</g>
</svg>
