<?xml version="1.0" standalone="no"?>
<!DOCTYPE svg PUBLIC "-//W3C//DTD SVG 20010904//EN"
 "http://www.w3.org/TR/2001/REC-SVG-20010904/DTD/svg10.dtd">
<svg version="1.0" xmlns="http://www.w3.org/2000/svg"
 width="128.000000pt" height="128.000000pt" viewBox="0 0 128.000000 128.000000"
 preserveAspectRatio="xMidYMid meet">

<g transform="translate(0.000000,128.000000) scale(0.100000,-0.100000)"
fill="#000000" stroke="none">
<path d="M650 721 c0 -239 0 -240 -24 -268 -34 -39 -98 -39 -132 0 -50 59 -14
147 61 147 l35 0 0 61 0 62 -51 -5 c-134 -13 -217 -159 -160 -283 36 -79 115
-122 204 -112 67 8 120 46 152 110 23 46 25 62 25 178 l0 128 43 -19 c23 -10
58 -20 77 -22 l35 -3 3 51 3 51 -43 12 c-65 19 -118 78 -118 131 0 18 -6 20
-55 20 l-55 0 0 -239z"/>
</g>
</svg>
